<?xml version="1.0" encoding="UTF-8"?>
<svg width="64" height="64" viewBox="0 0 64 64" xmlns="http://www.w3.org/2000/svg" role="img" aria-label="Wetland Mapper icon">
  <defs>
    <linearGradient id="sky" x1="12" y1="6" x2="52" y2="58" gradientUnits="userSpaceOnUse">
      <stop offset="0" stop-color="#8FD8F2"/>
      <stop offset="1" stop-color="#2F9BC2"/>
    </linearGradient>
    <linearGradient id="water" x1="12" y1="34" x2="52" y2="54" gradientUnits="userSpaceOnUse">
      <stop offset="0" stop-color="#52C7D8"/>
      <stop offset="1" stop-color="#0D6F92"/>
    </linearGradient>
  </defs>

  <circle cx="32" cy="32" r="28" fill="url(#sky)"/>
  <path d="M5 38c8-5 16-6 25-3 6 2 11 2 18-2 4-2 8-2 11 1 0 12-8 21-27 25C22 59 10 50 5 38z" fill="url(#water)"/>
  <path d="M8 43c7 3 13 3 19 0s12-3 18 0 8 3 11 0" fill="none" stroke="#D8F6F8" stroke-width="3" stroke-linecap="round"/>
  <path d="M12 52c5-2 10-2 15 0 6 2 11 2 17-1 4-2 8-2 10-1" fill="none" stroke="#83DDE4" stroke-width="2" stroke-linecap="round"/>

  <path d="M14 36c5-5 10-7 16-5 4 1 7 1 11-1 3-2 6-3 10-2-4 4-8 7-14 8-9 2-15 1-23 0z" fill="#78A84C"/>
  <path d="M16 37c6 2 13 2 21 0 6-1 11-3 15-6" fill="none" stroke="#3D7A36" stroke-width="2" stroke-linecap="round"/>

  <g fill="none" stroke-linecap="round">
    <path d="M19 38V17" stroke="#2F6E2E" stroke-width="3"/>
    <path d="M26 38V14" stroke="#2F6E2E" stroke-width="3"/>
    <path d="M45 36V16" stroke="#2F6E2E" stroke-width="3"/>
    <path d="M19 25c-5-3-8-7-8-11 5 1 8 5 8 11z" fill="#95C765" stroke="#2F6E2E" stroke-width="1.5"/>
    <path d="M26 23c5-4 8-8 9-14-6 2-9 6-9 14z" fill="#A7D36F" stroke="#2F6E2E" stroke-width="1.5"/>
    <path d="M45 25c5-3 8-7 8-11-5 1-8 5-8 11z" fill="#95C765" stroke="#2F6E2E" stroke-width="1.5"/>
  </g>

  <path d="M16 40c6 2 12 2 18 0s12-2 18 1" fill="none" stroke="#14566B" stroke-width="2" stroke-linecap="round" opacity=".35"/>
  <circle cx="32" cy="32" r="29" fill="none" stroke="#14566B" stroke-width="2"/>
</svg>
